<mxfile host="app.diagrams.net" modified="2020-10-14T18:41:53.866Z" agent="5.0 (Windows NT 10.0; Win64; x64) AppleWebKit/537.36 (KHTML, like Gecko) Chrome/85.0.4183.102 Safari/537.36 Edg/85.0.564.51" etag="s72QRGy70jla6VpNFQLl" version="13.8.0" type="github">
  <diagram id="C5RBs43oDa-KdzZeNtuy" name="Page-1">
    <mxGraphModel dx="1209" dy="675" grid="1" gridSize="10" guides="1" tooltips="1" connect="1" arrows="1" fold="1" page="1" pageScale="1" pageWidth="827" pageHeight="1169" math="0" shadow="0">
      <root>
        <mxCell id="WIyWlLk6GJQsqaUBKTNV-0" />
        <mxCell id="WIyWlLk6GJQsqaUBKTNV-1" parent="WIyWlLk6GJQsqaUBKTNV-0" />
        <mxCell id="Tcygw-R1gbdxCRvLHlvC-0" value="Start" style="strokeWidth=2;html=1;shape=mxgraph.flowchart.terminator;whiteSpace=wrap;" vertex="1" parent="WIyWlLk6GJQsqaUBKTNV-1">
          <mxGeometry x="550" y="20" width="100" height="60" as="geometry" />
        </mxCell>
        <mxCell id="Tcygw-R1gbdxCRvLHlvC-3" value="" style="edgeStyle=orthogonalEdgeStyle;rounded=0;orthogonalLoop=1;jettySize=auto;html=1;" edge="1" parent="WIyWlLk6GJQsqaUBKTNV-1" source="Tcygw-R1gbdxCRvLHlvC-1" target="Tcygw-R1gbdxCRvLHlvC-2">
          <mxGeometry relative="1" as="geometry" />
        </mxCell>
        <mxCell id="Tcygw-R1gbdxCRvLHlvC-1" value="Base Page Entry" style="rounded=1;whiteSpace=wrap;html=1;absoluteArcSize=1;arcSize=14;strokeWidth=2;" vertex="1" parent="WIyWlLk6GJQsqaUBKTNV-1">
          <mxGeometry x="550" y="120" width="100" height="100" as="geometry" />
        </mxCell>
        <mxCell id="Tcygw-R1gbdxCRvLHlvC-5" value="" style="edgeStyle=orthogonalEdgeStyle;rounded=0;orthogonalLoop=1;jettySize=auto;html=1;" edge="1" parent="WIyWlLk6GJQsqaUBKTNV-1" source="Tcygw-R1gbdxCRvLHlvC-2" target="Tcygw-R1gbdxCRvLHlvC-4">
          <mxGeometry relative="1" as="geometry" />
        </mxCell>
        <mxCell id="Tcygw-R1gbdxCRvLHlvC-2" value="Username Login" style="rounded=1;whiteSpace=wrap;html=1;absoluteArcSize=1;arcSize=14;strokeWidth=2;" vertex="1" parent="WIyWlLk6GJQsqaUBKTNV-1">
          <mxGeometry x="550" y="300" width="100" height="100" as="geometry" />
        </mxCell>
        <mxCell id="Tcygw-R1gbdxCRvLHlvC-7" value="" style="edgeStyle=orthogonalEdgeStyle;rounded=0;orthogonalLoop=1;jettySize=auto;html=1;" edge="1" parent="WIyWlLk6GJQsqaUBKTNV-1" source="Tcygw-R1gbdxCRvLHlvC-4" target="Tcygw-R1gbdxCRvLHlvC-6">
          <mxGeometry relative="1" as="geometry" />
        </mxCell>
        <mxCell id="Tcygw-R1gbdxCRvLHlvC-4" value="Password Login" style="rounded=1;whiteSpace=wrap;html=1;absoluteArcSize=1;arcSize=14;strokeWidth=2;" vertex="1" parent="WIyWlLk6GJQsqaUBKTNV-1">
          <mxGeometry x="550" y="480" width="100" height="100" as="geometry" />
        </mxCell>
        <mxCell id="Tcygw-R1gbdxCRvLHlvC-9" value="" style="edgeStyle=orthogonalEdgeStyle;rounded=0;orthogonalLoop=1;jettySize=auto;html=1;" edge="1" parent="WIyWlLk6GJQsqaUBKTNV-1" source="Tcygw-R1gbdxCRvLHlvC-6" target="Tcygw-R1gbdxCRvLHlvC-8">
          <mxGeometry relative="1" as="geometry" />
        </mxCell>
        <mxCell id="Tcygw-R1gbdxCRvLHlvC-6" value="Submit button" style="rounded=1;whiteSpace=wrap;html=1;absoluteArcSize=1;arcSize=14;strokeWidth=2;" vertex="1" parent="WIyWlLk6GJQsqaUBKTNV-1">
          <mxGeometry x="550" y="660" width="100" height="100" as="geometry" />
        </mxCell>
        <mxCell id="Tcygw-R1gbdxCRvLHlvC-23" value="" style="edgeStyle=orthogonalEdgeStyle;rounded=0;orthogonalLoop=1;jettySize=auto;html=1;" edge="1" parent="WIyWlLk6GJQsqaUBKTNV-1" source="Tcygw-R1gbdxCRvLHlvC-8" target="Tcygw-R1gbdxCRvLHlvC-22">
          <mxGeometry relative="1" as="geometry" />
        </mxCell>
        <mxCell id="Tcygw-R1gbdxCRvLHlvC-8" value="Login?" style="rhombus;whiteSpace=wrap;html=1;rounded=1;strokeWidth=2;arcSize=14;" vertex="1" parent="WIyWlLk6GJQsqaUBKTNV-1">
          <mxGeometry x="560" y="850" width="80" height="80" as="geometry" />
        </mxCell>
        <mxCell id="Tcygw-R1gbdxCRvLHlvC-10" value="&lt;font style=&quot;font-size: 20px&quot;&gt;NO&lt;/font&gt;" style="endArrow=classic;html=1;exitX=1;exitY=0.5;exitDx=0;exitDy=0;entryX=1;entryY=0.5;entryDx=0;entryDy=0;" edge="1" parent="WIyWlLk6GJQsqaUBKTNV-1" source="Tcygw-R1gbdxCRvLHlvC-8" target="Tcygw-R1gbdxCRvLHlvC-2">
          <mxGeometry width="50" height="50" relative="1" as="geometry">
            <mxPoint x="660" y="900" as="sourcePoint" />
            <mxPoint x="720" y="160" as="targetPoint" />
            <Array as="points">
              <mxPoint x="800" y="890" />
              <mxPoint x="800" y="520" />
              <mxPoint x="800" y="350" />
            </Array>
          </mxGeometry>
        </mxCell>
        <mxCell id="Tcygw-R1gbdxCRvLHlvC-12" value="" style="endArrow=classic;html=1;exitX=0.5;exitY=1;exitDx=0;exitDy=0;exitPerimeter=0;" edge="1" parent="WIyWlLk6GJQsqaUBKTNV-1" source="Tcygw-R1gbdxCRvLHlvC-0" target="Tcygw-R1gbdxCRvLHlvC-1">
          <mxGeometry width="50" height="50" relative="1" as="geometry">
            <mxPoint x="660" y="80" as="sourcePoint" />
            <mxPoint x="740" y="80" as="targetPoint" />
          </mxGeometry>
        </mxCell>
        <mxCell id="Tcygw-R1gbdxCRvLHlvC-21" value="" style="endArrow=classic;html=1;exitX=0.5;exitY=1;exitDx=0;exitDy=0;entryX=0.5;entryY=0;entryDx=0;entryDy=0;" edge="1" parent="WIyWlLk6GJQsqaUBKTNV-1" target="Tcygw-R1gbdxCRvLHlvC-32">
          <mxGeometry width="50" height="50" relative="1" as="geometry">
            <mxPoint x="600" y="1240" as="sourcePoint" />
            <mxPoint x="420" y="1270" as="targetPoint" />
            <Array as="points">
              <mxPoint x="520" y="1240" />
              <mxPoint x="440" y="1240" />
            </Array>
          </mxGeometry>
        </mxCell>
        <mxCell id="Tcygw-R1gbdxCRvLHlvC-22" value="Page Load and URL?" style="rhombus;whiteSpace=wrap;html=1;rounded=1;strokeWidth=2;arcSize=14;" vertex="1" parent="WIyWlLk6GJQsqaUBKTNV-1">
          <mxGeometry x="560" y="1010" width="80" height="80" as="geometry" />
        </mxCell>
        <mxCell id="Tcygw-R1gbdxCRvLHlvC-24" value="" style="endArrow=classic;html=1;exitX=1;exitY=0.5;exitDx=0;exitDy=0;" edge="1" parent="WIyWlLk6GJQsqaUBKTNV-1" source="Tcygw-R1gbdxCRvLHlvC-22" target="Tcygw-R1gbdxCRvLHlvC-27">
          <mxGeometry width="50" height="50" relative="1" as="geometry">
            <mxPoint x="280" y="1242.1" as="sourcePoint" />
            <mxPoint x="310" y="1040" as="targetPoint" />
            <Array as="points">
              <mxPoint x="880" y="1050" />
              <mxPoint x="880" y="2340" />
            </Array>
          </mxGeometry>
        </mxCell>
        <mxCell id="Tcygw-R1gbdxCRvLHlvC-26" value="&lt;font style=&quot;font-size: 20px&quot;&gt;NO&lt;/font&gt;" style="edgeLabel;html=1;align=center;verticalAlign=middle;resizable=0;points=[];" vertex="1" connectable="0" parent="WIyWlLk6GJQsqaUBKTNV-1">
          <mxGeometry x="689.9954895340825" y="1050.0005515570483" as="geometry" />
        </mxCell>
        <mxCell id="Tcygw-R1gbdxCRvLHlvC-27" value="Error" style="strokeWidth=2;html=1;shape=mxgraph.flowchart.terminator;whiteSpace=wrap;" vertex="1" parent="WIyWlLk6GJQsqaUBKTNV-1">
          <mxGeometry x="827" y="2390" width="100" height="60" as="geometry" />
        </mxCell>
        <mxCell id="Tcygw-R1gbdxCRvLHlvC-30" value="" style="endArrow=classic;html=1;entryX=0.5;entryY=0;entryDx=0;entryDy=0;" edge="1" parent="WIyWlLk6GJQsqaUBKTNV-1" target="Tcygw-R1gbdxCRvLHlvC-33">
          <mxGeometry width="50" height="50" relative="1" as="geometry">
            <mxPoint x="600" y="1240" as="sourcePoint" />
            <mxPoint x="780" y="1270" as="targetPoint" />
            <Array as="points">
              <mxPoint x="760" y="1240" />
            </Array>
          </mxGeometry>
        </mxCell>
        <mxCell id="Tcygw-R1gbdxCRvLHlvC-36" value="" style="edgeStyle=orthogonalEdgeStyle;rounded=0;orthogonalLoop=1;jettySize=auto;html=1;" edge="1" parent="WIyWlLk6GJQsqaUBKTNV-1" source="Tcygw-R1gbdxCRvLHlvC-32" target="Tcygw-R1gbdxCRvLHlvC-35">
          <mxGeometry relative="1" as="geometry" />
        </mxCell>
        <mxCell id="Tcygw-R1gbdxCRvLHlvC-32" value="Search with Headers" style="rounded=1;whiteSpace=wrap;html=1;absoluteArcSize=1;arcSize=14;strokeWidth=2;" vertex="1" parent="WIyWlLk6GJQsqaUBKTNV-1">
          <mxGeometry x="390" y="1270" width="100" height="100" as="geometry" />
        </mxCell>
        <mxCell id="Tcygw-R1gbdxCRvLHlvC-33" value="Search Bar" style="rounded=1;whiteSpace=wrap;html=1;absoluteArcSize=1;arcSize=14;strokeWidth=2;" vertex="1" parent="WIyWlLk6GJQsqaUBKTNV-1">
          <mxGeometry x="710" y="1270" width="100" height="100" as="geometry" />
        </mxCell>
        <mxCell id="Tcygw-R1gbdxCRvLHlvC-38" value="" style="edgeStyle=orthogonalEdgeStyle;rounded=0;orthogonalLoop=1;jettySize=auto;html=1;" edge="1" parent="WIyWlLk6GJQsqaUBKTNV-1" source="Tcygw-R1gbdxCRvLHlvC-35" target="Tcygw-R1gbdxCRvLHlvC-37">
          <mxGeometry relative="1" as="geometry" />
        </mxCell>
        <mxCell id="Tcygw-R1gbdxCRvLHlvC-35" value="Select Region" style="rounded=1;whiteSpace=wrap;html=1;absoluteArcSize=1;arcSize=14;strokeWidth=2;" vertex="1" parent="WIyWlLk6GJQsqaUBKTNV-1">
          <mxGeometry x="390" y="1420" width="100" height="100" as="geometry" />
        </mxCell>
        <mxCell id="Tcygw-R1gbdxCRvLHlvC-40" value="" style="edgeStyle=orthogonalEdgeStyle;rounded=0;orthogonalLoop=1;jettySize=auto;html=1;" edge="1" parent="WIyWlLk6GJQsqaUBKTNV-1" source="Tcygw-R1gbdxCRvLHlvC-37" target="Tcygw-R1gbdxCRvLHlvC-39">
          <mxGeometry relative="1" as="geometry" />
        </mxCell>
        <mxCell id="Tcygw-R1gbdxCRvLHlvC-37" value="Select Market" style="rounded=1;whiteSpace=wrap;html=1;absoluteArcSize=1;arcSize=14;strokeWidth=2;" vertex="1" parent="WIyWlLk6GJQsqaUBKTNV-1">
          <mxGeometry x="390" y="1580" width="100" height="100" as="geometry" />
        </mxCell>
        <mxCell id="Tcygw-R1gbdxCRvLHlvC-39" value="Select Catalog" style="rounded=1;whiteSpace=wrap;html=1;absoluteArcSize=1;arcSize=14;strokeWidth=2;" vertex="1" parent="WIyWlLk6GJQsqaUBKTNV-1">
          <mxGeometry x="390" y="1730" width="100" height="100" as="geometry" />
        </mxCell>
        <mxCell id="Tcygw-R1gbdxCRvLHlvC-42" value="Manual?" style="strokeWidth=2;html=1;shape=mxgraph.flowchart.decision;whiteSpace=wrap;" vertex="1" parent="WIyWlLk6GJQsqaUBKTNV-1">
          <mxGeometry x="390" y="1880" width="100" height="100" as="geometry" />
        </mxCell>
        <mxCell id="Tcygw-R1gbdxCRvLHlvC-62" value="" style="edgeStyle=orthogonalEdgeStyle;rounded=0;orthogonalLoop=1;jettySize=auto;html=1;" edge="1" parent="WIyWlLk6GJQsqaUBKTNV-1">
          <mxGeometry relative="1" as="geometry">
            <mxPoint x="320" y="2120" as="sourcePoint" />
            <mxPoint x="320" y="2200" as="targetPoint" />
          </mxGeometry>
        </mxCell>
        <mxCell id="Tcygw-R1gbdxCRvLHlvC-43" value="Select Collection&lt;br&gt;" style="rounded=1;whiteSpace=wrap;html=1;absoluteArcSize=1;arcSize=14;strokeWidth=2;" vertex="1" parent="WIyWlLk6GJQsqaUBKTNV-1">
          <mxGeometry x="270" y="2020" width="100" height="100" as="geometry" />
        </mxCell>
        <mxCell id="Tcygw-R1gbdxCRvLHlvC-67" value="" style="edgeStyle=orthogonalEdgeStyle;rounded=0;orthogonalLoop=1;jettySize=auto;html=1;" edge="1" parent="WIyWlLk6GJQsqaUBKTNV-1" source="Tcygw-R1gbdxCRvLHlvC-44" target="Tcygw-R1gbdxCRvLHlvC-66">
          <mxGeometry relative="1" as="geometry" />
        </mxCell>
        <mxCell id="Tcygw-R1gbdxCRvLHlvC-44" value="Pick Collection" style="rounded=1;whiteSpace=wrap;html=1;absoluteArcSize=1;arcSize=14;strokeWidth=2;" vertex="1" parent="WIyWlLk6GJQsqaUBKTNV-1">
          <mxGeometry x="500" y="2020" width="100" height="100" as="geometry" />
        </mxCell>
        <mxCell id="Tcygw-R1gbdxCRvLHlvC-45" value="&lt;font style=&quot;font-size: 20px&quot;&gt;YES&lt;/font&gt;" style="endArrow=classic;html=1;exitX=0.5;exitY=1;exitDx=0;exitDy=0;exitPerimeter=0;entryX=0.5;entryY=0;entryDx=0;entryDy=0;" edge="1" parent="WIyWlLk6GJQsqaUBKTNV-1" source="Tcygw-R1gbdxCRvLHlvC-42">
          <mxGeometry width="50" height="50" relative="1" as="geometry">
            <mxPoint x="310" y="1970" as="sourcePoint" />
            <mxPoint x="320" y="2020" as="targetPoint" />
          </mxGeometry>
        </mxCell>
        <mxCell id="Tcygw-R1gbdxCRvLHlvC-46" value="&lt;font style=&quot;font-size: 20px&quot;&gt;NO&lt;/font&gt;" style="endArrow=classic;html=1;exitX=0.5;exitY=1;exitDx=0;exitDy=0;exitPerimeter=0;entryX=0.5;entryY=0;entryDx=0;entryDy=0;" edge="1" parent="WIyWlLk6GJQsqaUBKTNV-1" source="Tcygw-R1gbdxCRvLHlvC-42" target="Tcygw-R1gbdxCRvLHlvC-44">
          <mxGeometry width="50" height="50" relative="1" as="geometry">
            <mxPoint x="500" y="2000" as="sourcePoint" />
            <mxPoint x="550" y="1950" as="targetPoint" />
          </mxGeometry>
        </mxCell>
        <mxCell id="Tcygw-R1gbdxCRvLHlvC-47" value="Enter Search Criteria" style="rounded=1;whiteSpace=wrap;html=1;absoluteArcSize=1;arcSize=14;strokeWidth=2;" vertex="1" parent="WIyWlLk6GJQsqaUBKTNV-1">
          <mxGeometry x="710" y="1420" width="100" height="100" as="geometry" />
        </mxCell>
        <mxCell id="Tcygw-R1gbdxCRvLHlvC-48" value="" style="endArrow=classic;html=1;entryX=0.5;entryY=0;entryDx=0;entryDy=0;exitX=0.5;exitY=1;exitDx=0;exitDy=0;" edge="1" parent="WIyWlLk6GJQsqaUBKTNV-1" source="Tcygw-R1gbdxCRvLHlvC-33" target="Tcygw-R1gbdxCRvLHlvC-47">
          <mxGeometry width="50" height="50" relative="1" as="geometry">
            <mxPoint x="650" y="1440" as="sourcePoint" />
            <mxPoint x="700" y="1390" as="targetPoint" />
          </mxGeometry>
        </mxCell>
        <mxCell id="Tcygw-R1gbdxCRvLHlvC-50" value="Success?" style="strokeWidth=2;html=1;shape=mxgraph.flowchart.decision;whiteSpace=wrap;" vertex="1" parent="WIyWlLk6GJQsqaUBKTNV-1">
          <mxGeometry x="710" y="1580" width="100" height="100" as="geometry" />
        </mxCell>
        <mxCell id="Tcygw-R1gbdxCRvLHlvC-51" value="" style="endArrow=classic;html=1;exitX=0.5;exitY=1;exitDx=0;exitDy=0;entryX=0.5;entryY=0;entryDx=0;entryDy=0;entryPerimeter=0;" edge="1" parent="WIyWlLk6GJQsqaUBKTNV-1" source="Tcygw-R1gbdxCRvLHlvC-47" target="Tcygw-R1gbdxCRvLHlvC-50">
          <mxGeometry width="50" height="50" relative="1" as="geometry">
            <mxPoint x="680" y="1630" as="sourcePoint" />
            <mxPoint x="730" y="1580" as="targetPoint" />
          </mxGeometry>
        </mxCell>
        <mxCell id="Tcygw-R1gbdxCRvLHlvC-52" value="&lt;font style=&quot;font-size: 20px&quot;&gt;NO&lt;/font&gt;" style="endArrow=classic;html=1;exitX=1;exitY=0.5;exitDx=0;exitDy=0;exitPerimeter=0;entryX=1;entryY=0.5;entryDx=0;entryDy=0;" edge="1" parent="WIyWlLk6GJQsqaUBKTNV-1" source="Tcygw-R1gbdxCRvLHlvC-50" target="Tcygw-R1gbdxCRvLHlvC-33">
          <mxGeometry width="50" height="50" relative="1" as="geometry">
            <mxPoint x="600" y="1600" as="sourcePoint" />
            <mxPoint x="850" y="1260" as="targetPoint" />
            <Array as="points">
              <mxPoint x="850" y="1630" />
              <mxPoint x="850" y="1320" />
            </Array>
          </mxGeometry>
        </mxCell>
        <mxCell id="Tcygw-R1gbdxCRvLHlvC-53" value="Success End" style="strokeWidth=2;html=1;shape=mxgraph.flowchart.terminator;whiteSpace=wrap;" vertex="1" parent="WIyWlLk6GJQsqaUBKTNV-1">
          <mxGeometry x="390" y="2790" width="100" height="60" as="geometry" />
        </mxCell>
        <mxCell id="Tcygw-R1gbdxCRvLHlvC-54" value="Page Load?" style="strokeWidth=2;html=1;shape=mxgraph.flowchart.decision;whiteSpace=wrap;" vertex="1" parent="WIyWlLk6GJQsqaUBKTNV-1">
          <mxGeometry x="710" y="1730" width="100" height="100" as="geometry" />
        </mxCell>
        <mxCell id="Tcygw-R1gbdxCRvLHlvC-55" value="&lt;font style=&quot;font-size: 20px&quot;&gt;NO&lt;/font&gt;" style="endArrow=classic;html=1;exitX=1;exitY=0.5;exitDx=0;exitDy=0;exitPerimeter=0;" edge="1" parent="WIyWlLk6GJQsqaUBKTNV-1" source="Tcygw-R1gbdxCRvLHlvC-54">
          <mxGeometry x="-0.2727" width="50" height="50" relative="1" as="geometry">
            <mxPoint x="810" y="1677" as="sourcePoint" />
            <mxPoint x="880" y="1830" as="targetPoint" />
            <Array as="points">
              <mxPoint x="880" y="1780" />
            </Array>
            <mxPoint as="offset" />
          </mxGeometry>
        </mxCell>
        <mxCell id="Tcygw-R1gbdxCRvLHlvC-56" value="&lt;font style=&quot;font-size: 20px&quot;&gt;YES&lt;/font&gt;" style="endArrow=classic;html=1;entryX=0.5;entryY=0;entryDx=0;entryDy=0;entryPerimeter=0;exitX=0.5;exitY=1;exitDx=0;exitDy=0;exitPerimeter=0;" edge="1" parent="WIyWlLk6GJQsqaUBKTNV-1" source="Tcygw-R1gbdxCRvLHlvC-50" target="Tcygw-R1gbdxCRvLHlvC-54">
          <mxGeometry width="50" height="50" relative="1" as="geometry">
            <mxPoint x="650" y="1710" as="sourcePoint" />
            <mxPoint x="700" y="1660" as="targetPoint" />
          </mxGeometry>
        </mxCell>
        <mxCell id="Tcygw-R1gbdxCRvLHlvC-57" value="" style="endArrow=classic;html=1;exitX=0.5;exitY=1;exitDx=0;exitDy=0;entryX=0.5;entryY=0;entryDx=0;entryDy=0;entryPerimeter=0;" edge="1" parent="WIyWlLk6GJQsqaUBKTNV-1" source="Tcygw-R1gbdxCRvLHlvC-39" target="Tcygw-R1gbdxCRvLHlvC-42">
          <mxGeometry width="50" height="50" relative="1" as="geometry">
            <mxPoint x="620" y="1880" as="sourcePoint" />
            <mxPoint x="670" y="1830" as="targetPoint" />
          </mxGeometry>
        </mxCell>
        <mxCell id="Tcygw-R1gbdxCRvLHlvC-58" value="&lt;font style=&quot;font-size: 20px&quot;&gt;YES&lt;/font&gt;" style="endArrow=classic;html=1;exitX=0.5;exitY=1;exitDx=0;exitDy=0;exitPerimeter=0;" edge="1" parent="WIyWlLk6GJQsqaUBKTNV-1" source="Tcygw-R1gbdxCRvLHlvC-54" target="Tcygw-R1gbdxCRvLHlvC-59">
          <mxGeometry width="50" height="50" relative="1" as="geometry">
            <mxPoint x="790" y="1890" as="sourcePoint" />
            <mxPoint x="760" y="1910" as="targetPoint" />
          </mxGeometry>
        </mxCell>
        <mxCell id="Tcygw-R1gbdxCRvLHlvC-59" value="Success" style="strokeWidth=2;html=1;shape=mxgraph.flowchart.terminator;whiteSpace=wrap;" vertex="1" parent="WIyWlLk6GJQsqaUBKTNV-1">
          <mxGeometry x="710" y="1880" width="100" height="60" as="geometry" />
        </mxCell>
        <mxCell id="Tcygw-R1gbdxCRvLHlvC-65" value="" style="edgeStyle=orthogonalEdgeStyle;rounded=0;orthogonalLoop=1;jettySize=auto;html=1;entryX=0.5;entryY=0;entryDx=0;entryDy=0;entryPerimeter=0;" edge="1" parent="WIyWlLk6GJQsqaUBKTNV-1" target="Tcygw-R1gbdxCRvLHlvC-81">
          <mxGeometry relative="1" as="geometry">
            <mxPoint x="370" y="2250" as="sourcePoint" />
            <mxPoint x="440" y="2370" as="targetPoint" />
          </mxGeometry>
        </mxCell>
        <mxCell id="Tcygw-R1gbdxCRvLHlvC-61" value="Select Design" style="rounded=1;whiteSpace=wrap;html=1;absoluteArcSize=1;arcSize=14;strokeWidth=2;" vertex="1" parent="WIyWlLk6GJQsqaUBKTNV-1">
          <mxGeometry x="270" y="2203" width="100" height="100" as="geometry" />
        </mxCell>
        <mxCell id="Tcygw-R1gbdxCRvLHlvC-64" value="Select Design" style="rounded=1;whiteSpace=wrap;html=1;absoluteArcSize=1;arcSize=14;strokeWidth=2;" vertex="1" parent="WIyWlLk6GJQsqaUBKTNV-1">
          <mxGeometry x="390" y="2590" width="100" height="100" as="geometry" />
        </mxCell>
        <mxCell id="Tcygw-R1gbdxCRvLHlvC-66" value="Pick Design" style="rounded=1;whiteSpace=wrap;html=1;absoluteArcSize=1;arcSize=14;strokeWidth=2;" vertex="1" parent="WIyWlLk6GJQsqaUBKTNV-1">
          <mxGeometry x="500" y="2200" width="100" height="100" as="geometry" />
        </mxCell>
        <mxCell id="Tcygw-R1gbdxCRvLHlvC-68" value="" style="edgeStyle=orthogonalEdgeStyle;rounded=0;orthogonalLoop=1;jettySize=auto;html=1;exitX=0;exitY=0.5;exitDx=0;exitDy=0;entryX=0.5;entryY=0;entryDx=0;entryDy=0;entryPerimeter=0;" edge="1" parent="WIyWlLk6GJQsqaUBKTNV-1" source="Tcygw-R1gbdxCRvLHlvC-66" target="Tcygw-R1gbdxCRvLHlvC-81">
          <mxGeometry relative="1" as="geometry">
            <mxPoint x="380" y="2260" as="sourcePoint" />
            <mxPoint x="440" y="2370" as="targetPoint" />
            <Array as="points">
              <mxPoint x="440" y="2250" />
            </Array>
          </mxGeometry>
        </mxCell>
        <mxCell id="Tcygw-R1gbdxCRvLHlvC-69" value="&lt;font style=&quot;font-size: 20px&quot;&gt;YES&lt;/font&gt;" style="endArrow=classic;html=1;exitX=0.5;exitY=1;exitDx=0;exitDy=0;entryX=0.5;entryY=0;entryDx=0;entryDy=0;" edge="1" parent="WIyWlLk6GJQsqaUBKTNV-1" source="Tcygw-R1gbdxCRvLHlvC-22" target="Tcygw-R1gbdxCRvLHlvC-72">
          <mxGeometry width="50" height="50" relative="1" as="geometry">
            <mxPoint x="610" y="1230" as="sourcePoint" />
            <mxPoint x="600" y="1130" as="targetPoint" />
          </mxGeometry>
        </mxCell>
        <mxCell id="Tcygw-R1gbdxCRvLHlvC-70" value="" style="endArrow=classic;html=1;exitX=0.5;exitY=1;exitDx=0;exitDy=0;entryX=0.5;entryY=0;entryDx=0;entryDy=0;entryPerimeter=0;" edge="1" parent="WIyWlLk6GJQsqaUBKTNV-1" source="Tcygw-R1gbdxCRvLHlvC-64" target="Tcygw-R1gbdxCRvLHlvC-53">
          <mxGeometry width="50" height="50" relative="1" as="geometry">
            <mxPoint x="520" y="2630" as="sourcePoint" />
            <mxPoint x="570" y="2580" as="targetPoint" />
          </mxGeometry>
        </mxCell>
        <mxCell id="Tcygw-R1gbdxCRvLHlvC-72" value="Logout?" style="rhombus;whiteSpace=wrap;html=1;rounded=1;strokeWidth=2;arcSize=14;" vertex="1" parent="WIyWlLk6GJQsqaUBKTNV-1">
          <mxGeometry x="560" y="1140" width="80" height="80" as="geometry" />
        </mxCell>
        <mxCell id="Tcygw-R1gbdxCRvLHlvC-73" value="&lt;font style=&quot;font-size: 20px&quot;&gt;NO&lt;/font&gt;" style="endArrow=classic;html=1;exitX=0.5;exitY=1;exitDx=0;exitDy=0;" edge="1" parent="WIyWlLk6GJQsqaUBKTNV-1" source="Tcygw-R1gbdxCRvLHlvC-72">
          <mxGeometry width="50" height="50" relative="1" as="geometry">
            <mxPoint x="680" y="1220" as="sourcePoint" />
            <mxPoint x="600" y="1240" as="targetPoint" />
          </mxGeometry>
        </mxCell>
        <mxCell id="Tcygw-R1gbdxCRvLHlvC-75" value="Page Load and URL?" style="rhombus;whiteSpace=wrap;html=1;rounded=1;strokeWidth=2;arcSize=14;" vertex="1" parent="WIyWlLk6GJQsqaUBKTNV-1">
          <mxGeometry x="440" y="930" width="80" height="80" as="geometry" />
        </mxCell>
        <mxCell id="Tcygw-R1gbdxCRvLHlvC-76" value="&lt;font style=&quot;font-size: 20px&quot;&gt;YES&lt;/font&gt;" style="endArrow=classic;html=1;exitX=0.5;exitY=0;exitDx=0;exitDy=0;entryX=0;entryY=0.5;entryDx=0;entryDy=0;" edge="1" parent="WIyWlLk6GJQsqaUBKTNV-1" source="Tcygw-R1gbdxCRvLHlvC-75" target="Tcygw-R1gbdxCRvLHlvC-1">
          <mxGeometry x="-0.6655" y="-70" width="50" height="50" relative="1" as="geometry">
            <mxPoint x="430" y="1030" as="sourcePoint" />
            <mxPoint x="480" y="560" as="targetPoint" />
            <Array as="points">
              <mxPoint x="480" y="790" />
              <mxPoint x="480" y="170" />
            </Array>
            <mxPoint x="-70" y="70" as="offset" />
          </mxGeometry>
        </mxCell>
        <mxCell id="Tcygw-R1gbdxCRvLHlvC-77" value="&lt;font style=&quot;font-size: 20px&quot;&gt;YES&lt;/font&gt;" style="endArrow=classic;html=1;exitX=0;exitY=0.5;exitDx=0;exitDy=0;entryX=0.5;entryY=1;entryDx=0;entryDy=0;" edge="1" parent="WIyWlLk6GJQsqaUBKTNV-1" source="Tcygw-R1gbdxCRvLHlvC-72" target="Tcygw-R1gbdxCRvLHlvC-75">
          <mxGeometry width="50" height="50" relative="1" as="geometry">
            <mxPoint x="350" y="1180" as="sourcePoint" />
            <mxPoint x="400" y="1130" as="targetPoint" />
            <Array as="points">
              <mxPoint x="480" y="1180" />
            </Array>
          </mxGeometry>
        </mxCell>
        <mxCell id="Tcygw-R1gbdxCRvLHlvC-78" value="&lt;font style=&quot;font-size: 20px&quot;&gt;NO&lt;/font&gt;" style="endArrow=classic;html=1;exitX=1;exitY=0.5;exitDx=0;exitDy=0;" edge="1" parent="WIyWlLk6GJQsqaUBKTNV-1" source="Tcygw-R1gbdxCRvLHlvC-75">
          <mxGeometry width="50" height="50" relative="1" as="geometry">
            <mxPoint x="520" y="980" as="sourcePoint" />
            <mxPoint x="570" y="970" as="targetPoint" />
          </mxGeometry>
        </mxCell>
        <mxCell id="Tcygw-R1gbdxCRvLHlvC-79" value="" style="endArrow=none;dashed=1;html=1;dashPattern=1 3;strokeWidth=2;" edge="1" parent="WIyWlLk6GJQsqaUBKTNV-1">
          <mxGeometry width="50" height="50" relative="1" as="geometry">
            <mxPoint x="570" y="970" as="sourcePoint" />
            <mxPoint x="640" y="970" as="targetPoint" />
          </mxGeometry>
        </mxCell>
        <mxCell id="Tcygw-R1gbdxCRvLHlvC-80" value="" style="endArrow=classic;html=1;" edge="1" parent="WIyWlLk6GJQsqaUBKTNV-1">
          <mxGeometry width="50" height="50" relative="1" as="geometry">
            <mxPoint x="640" y="970" as="sourcePoint" />
            <mxPoint x="880" y="1060" as="targetPoint" />
            <Array as="points">
              <mxPoint x="880" y="970" />
            </Array>
          </mxGeometry>
        </mxCell>
        <mxCell id="Tcygw-R1gbdxCRvLHlvC-81" value="Clear Filter?" style="strokeWidth=2;html=1;shape=mxgraph.flowchart.decision;whiteSpace=wrap;" vertex="1" parent="WIyWlLk6GJQsqaUBKTNV-1">
          <mxGeometry x="390" y="2370" width="100" height="100" as="geometry" />
        </mxCell>
        <mxCell id="Tcygw-R1gbdxCRvLHlvC-83" value="&lt;font style=&quot;font-size: 20px&quot;&gt;NO&lt;/font&gt;" style="endArrow=classic;html=1;exitX=0.5;exitY=1;exitDx=0;exitDy=0;exitPerimeter=0;entryX=0.5;entryY=0;entryDx=0;entryDy=0;" edge="1" parent="WIyWlLk6GJQsqaUBKTNV-1" source="Tcygw-R1gbdxCRvLHlvC-81" target="Tcygw-R1gbdxCRvLHlvC-64">
          <mxGeometry width="50" height="50" relative="1" as="geometry">
            <mxPoint x="590" y="2290" as="sourcePoint" />
            <mxPoint x="640" y="2240" as="targetPoint" />
          </mxGeometry>
        </mxCell>
        <mxCell id="Tcygw-R1gbdxCRvLHlvC-84" value="&lt;font style=&quot;font-size: 20px&quot;&gt;YES&lt;/font&gt;" style="endArrow=classic;html=1;exitX=1;exitY=0.5;exitDx=0;exitDy=0;exitPerimeter=0;" edge="1" parent="WIyWlLk6GJQsqaUBKTNV-1" source="Tcygw-R1gbdxCRvLHlvC-81">
          <mxGeometry width="50" height="50" relative="1" as="geometry">
            <mxPoint x="590" y="2290" as="sourcePoint" />
            <mxPoint x="600" y="2420" as="targetPoint" />
          </mxGeometry>
        </mxCell>
        <mxCell id="Tcygw-R1gbdxCRvLHlvC-86" value="Changed URL?" style="strokeWidth=2;html=1;shape=mxgraph.flowchart.decision;whiteSpace=wrap;" vertex="1" parent="WIyWlLk6GJQsqaUBKTNV-1">
          <mxGeometry x="600" y="2370" width="100" height="100" as="geometry" />
        </mxCell>
        <mxCell id="Tcygw-R1gbdxCRvLHlvC-87" value="&lt;font style=&quot;font-size: 20px&quot;&gt;YES&lt;/font&gt;" style="endArrow=classic;html=1;exitX=0.5;exitY=0;exitDx=0;exitDy=0;exitPerimeter=0;entryX=1;entryY=0.5;entryDx=0;entryDy=0;entryPerimeter=0;" edge="1" parent="WIyWlLk6GJQsqaUBKTNV-1" source="Tcygw-R1gbdxCRvLHlvC-86" target="Tcygw-R1gbdxCRvLHlvC-42">
          <mxGeometry width="50" height="50" relative="1" as="geometry">
            <mxPoint x="650" y="2350" as="sourcePoint" />
            <mxPoint x="650" y="1980" as="targetPoint" />
            <Array as="points">
              <mxPoint x="650" y="1930" />
            </Array>
          </mxGeometry>
        </mxCell>
        <mxCell id="Tcygw-R1gbdxCRvLHlvC-88" value="&lt;font style=&quot;font-size: 20px&quot;&gt;NO&lt;/font&gt;" style="endArrow=classic;html=1;exitX=1;exitY=0.5;exitDx=0;exitDy=0;exitPerimeter=0;entryX=0;entryY=0.5;entryDx=0;entryDy=0;entryPerimeter=0;" edge="1" parent="WIyWlLk6GJQsqaUBKTNV-1" source="Tcygw-R1gbdxCRvLHlvC-86" target="Tcygw-R1gbdxCRvLHlvC-27">
          <mxGeometry width="50" height="50" relative="1" as="geometry">
            <mxPoint x="730" y="2410" as="sourcePoint" />
            <mxPoint x="780" y="2360" as="targetPoint" />
          </mxGeometry>
        </mxCell>
        <mxCell id="Tcygw-R1gbdxCRvLHlvC-90" value="Where do I put the Alphabetical search or the most recent search?" style="text;html=1;strokeColor=none;fillColor=none;align=center;verticalAlign=middle;whiteSpace=wrap;rounded=0;" vertex="1" parent="WIyWlLk6GJQsqaUBKTNV-1">
          <mxGeometry x="630" y="2650" width="220" height="20" as="geometry" />
        </mxCell>
        <mxCell id="Tcygw-R1gbdxCRvLHlvC-91" value="Should I split up the login in process and the search process?" style="text;html=1;strokeColor=none;fillColor=none;align=center;verticalAlign=middle;whiteSpace=wrap;rounded=0;" vertex="1" parent="WIyWlLk6GJQsqaUBKTNV-1">
          <mxGeometry x="740" y="2540" width="150" height="20" as="geometry" />
        </mxCell>
        <mxCell id="Tcygw-R1gbdxCRvLHlvC-92" value="Should I put in a URL every time it could potentially change?" style="text;html=1;strokeColor=none;fillColor=none;align=center;verticalAlign=middle;whiteSpace=wrap;rounded=0;" vertex="1" parent="WIyWlLk6GJQsqaUBKTNV-1">
          <mxGeometry x="890" y="2610" width="150" height="20" as="geometry" />
        </mxCell>
        <mxCell id="Tcygw-R1gbdxCRvLHlvC-94" value="On login, should I check the main menu options to see if a name was added?" style="text;html=1;strokeColor=none;fillColor=none;align=center;verticalAlign=middle;whiteSpace=wrap;rounded=0;" vertex="1" parent="WIyWlLk6GJQsqaUBKTNV-1">
          <mxGeometry x="970" y="2510" width="170" height="50" as="geometry" />
        </mxCell>
        <mxCell id="Tcygw-R1gbdxCRvLHlvC-95" value="Is horizontal the same as vertical?" style="text;html=1;strokeColor=none;fillColor=none;align=center;verticalAlign=middle;whiteSpace=wrap;rounded=0;" vertex="1" parent="WIyWlLk6GJQsqaUBKTNV-1">
          <mxGeometry x="550" y="2530" width="40" height="20" as="geometry" />
        </mxCell>
        <mxCell id="Tcygw-R1gbdxCRvLHlvC-96" value="Should I be doing it where it&#39;s like a 5 by 5 grid and I map out and follow along if the user has permission? Or is that too similar to an architectural diagram?" style="text;html=1;strokeColor=none;fillColor=none;align=center;verticalAlign=middle;whiteSpace=wrap;rounded=0;" vertex="1" parent="WIyWlLk6GJQsqaUBKTNV-1">
          <mxGeometry x="880" y="2700" width="300" height="20" as="geometry" />
        </mxCell>
        <mxCell id="Tcygw-R1gbdxCRvLHlvC-97" value="When I click on design, it will scroll down to the appropriate selection. Do I need to make a check on this?" style="text;html=1;strokeColor=none;fillColor=none;align=center;verticalAlign=middle;whiteSpace=wrap;rounded=0;" vertex="1" parent="WIyWlLk6GJQsqaUBKTNV-1">
          <mxGeometry x="600" y="2730" width="200" height="20" as="geometry" />
        </mxCell>
      </root>
    </mxGraphModel>
  </diagram>
</mxfile>
